name Run_300 02_newCOP3_v24.mot
datacolumns 19
datarows 20
range 2.42000000 2.43900000
endheader
                time	   R_ground_force_vx	   R_ground_force_vy	   R_ground_force_vz	   R_ground_force_px	   R_ground_force_py	   R_ground_force_pz	   L_ground_force_vx	   L_ground_force_vy	   L_ground_force_vz	   L_ground_force_px	   L_ground_force_py	   L_ground_force_pz	   R_ground_torque_x	   R_ground_torque_y	   R_ground_torque_z	   L_ground_torque_x	   L_ground_torque_y	   L_ground_torque_z	
          2.42000000	          0.00000000	          0.00000000	          0.00000000	          0.00000000	          0.00000000	          0.00000000	       -113.79737100	       1778.53466800	        -10.27376700	          0.94935400	          0.00000000	         -0.35347700	          0.00000000	          0.00000000	          0.00000000	          0.00000000	         -0.72149500	          0.00000000	
          2.42100000	          0.00000000	          0.00000000	          0.00000000	          0.00000000	          0.00000000	          0.00000000	       -110.39820900	       1784.07116700	        -10.03312500	          0.94731400	          0.00000000	         -0.35356500	          0.00000000	          0.00000000	          0.00000000	          0.00000000	         -0.71880900	          0.00000000	
          2.42200000	          0.00000000	          0.00000000	          0.00000000	          0.00000000	          0.00000000	          0.00000000	       -107.01718900	       1788.95117200	         -9.79287900	          0.94527600	          0.00000000	         -0.35365000	          0.00000000	          0.00000000	          0.00000000	          0.00000000	         -0.71818700	          0.00000000	
          2.42300000	          0.00000000	          0.00000000	          0.00000000	          0.00000000	          0.00000000	          0.00000000	       -103.64122800	       1793.19665500	         -9.55105100	          0.94323700	          0.00000000	         -0.35373000	          0.00000000	          0.00000000	          0.00000000	          0.00000000	         -0.71924900	          0.00000000	
          2.42400000	          0.00000000	          0.00000000	          0.00000000	          0.00000000	          0.00000000	          0.00000000	       -100.25734700	       1796.82971200	         -9.30605400	          0.94119500	          0.00000000	         -0.35380400	          0.00000000	          0.00000000	          0.00000000	          0.00000000	         -0.72161500	          0.00000000	
          2.42500000	          0.00000000	          0.00000000	          0.00000000	          0.00000000	          0.00000000	          0.00000000	        -96.85343900	       1799.87121600	         -9.05670200	          0.93914700	          0.00000000	         -0.35387300	          0.00000000	          0.00000000	          0.00000000	          0.00000000	         -0.72490800	          0.00000000	
          2.42600000	          0.00000000	          0.00000000	          0.00000000	          0.00000000	          0.00000000	          0.00000000	        -93.41906700	       1802.34118700	         -8.80218300	          0.93709200	          0.00000000	         -0.35393400	          0.00000000	          0.00000000	          0.00000000	          0.00000000	         -0.72875200	          0.00000000	
          2.42700000	          0.00000000	          0.00000000	          0.00000000	          0.00000000	          0.00000000	          0.00000000	        -89.94601400	       1804.25769000	         -8.54203300	          0.93502900	          0.00000000	         -0.35399000	          0.00000000	          0.00000000	          0.00000000	          0.00000000	         -0.73277500	          0.00000000	
          2.42800000	          0.00000000	          0.00000000	          0.00000000	          0.00000000	          0.00000000	          0.00000000	        -86.42873400	       1805.63684100	         -8.27608500	          0.93295700	          0.00000000	         -0.35403900	          0.00000000	          0.00000000	          0.00000000	          0.00000000	         -0.73660800	          0.00000000	
          2.42900000	          0.00000000	          0.00000000	          0.00000000	          0.00000000	          0.00000000	          0.00000000	        -82.86458600	       1806.49243200	         -8.00442100	          0.93087700	          0.00000000	         -0.35408200	          0.00000000	          0.00000000	          0.00000000	          0.00000000	         -0.73989000	          0.00000000	
          2.43000000	          0.00000000	          0.00000000	          0.00000000	          0.00000000	          0.00000000	          0.00000000	        -79.25393700	       1806.83618200	         -7.72731300	          0.92878900	          0.00000000	         -0.35411900	          0.00000000	          0.00000000	          0.00000000	          0.00000000	         -0.74226200	          0.00000000	
          2.43100000	          0.00000000	          0.00000000	          0.00000000	          0.00000000	          0.00000000	          0.00000000	        -75.60000600	       1806.67724600	         -7.44516700	          0.92669600	          0.00000000	         -0.35415200	          0.00000000	          0.00000000	          0.00000000	          0.00000000	         -0.74337600	          0.00000000	
          2.43200000	          0.00000000	          0.00000000	          0.00000000	          0.00000000	          0.00000000	          0.00000000	        -71.90865300	       1806.02294900	         -7.15846700	          0.92459800	          0.00000000	         -0.35418100	          0.00000000	          0.00000000	          0.00000000	          0.00000000	         -0.74288800	          0.00000000	
          2.43300000	          0.00000000	          0.00000000	          0.00000000	          0.00000000	          0.00000000	          0.00000000	        -68.18791200	       1804.87890600	         -6.86773100	          0.92249800	          0.00000000	         -0.35420800	          0.00000000	          0.00000000	          0.00000000	          0.00000000	         -0.74046500	          0.00000000	
          2.43400000	          0.00000000	          0.00000000	          0.00000000	          0.00000000	          0.00000000	          0.00000000	        -64.44753300	       1803.24914600	         -6.57346200	          0.92039800	          0.00000000	         -0.35423200	          0.00000000	          0.00000000	          0.00000000	          0.00000000	         -0.73578000	          0.00000000	
          2.43500000	          0.00000000	          0.00000000	          0.00000000	          0.00000000	          0.00000000	          0.00000000	        -60.69839900	       1801.13671900	         -6.27612400	          0.91830200	          0.00000000	         -0.35425500	          0.00000000	          0.00000000	          0.00000000	          0.00000000	         -0.72851800	          0.00000000	
          2.43600000	          0.00000000	          0.00000000	          0.00000000	          0.00000000	          0.00000000	          0.00000000	        -56.95191600	       1798.54431200	         -5.97611600	          0.91621000	          0.00000000	         -0.35427700	          0.00000000	          0.00000000	          0.00000000	          0.00000000	         -0.71837200	          0.00000000	
          2.43700000	          0.00000000	          0.00000000	          0.00000000	          0.00000000	          0.00000000	          0.00000000	        -53.21941800	       1795.47399900	         -5.67376800	          0.91412600	          0.00000000	         -0.35430000	          0.00000000	          0.00000000	          0.00000000	          0.00000000	         -0.70504700	          0.00000000	
          2.43800000	          0.00000000	          0.00000000	          0.00000000	          0.00000000	          0.00000000	          0.00000000	        -49.51160800	       1791.92883300	         -5.36933400	          0.91205200	          0.00000000	         -0.35432400	          0.00000000	          0.00000000	          0.00000000	          0.00000000	         -0.68825900	          0.00000000	
          2.43900000	          0.00000000	          0.00000000	          0.00000000	          0.00000000	          0.00000000	          0.00000000	        -45.83804300	       1787.91198700	         -5.06300700	          0.90999000	          0.00000000	         -0.35435000	          0.00000000	          0.00000000	          0.00000000	          0.00000000	         -0.66773500	          0.00000000	
